<svg xmlns="http://www.w3.org/2000/svg" xmlns:xlink="http://www.w3.org/1999/xlink" viewBox="0 0 61.25 44.1"><symbol id="p" viewBox="0 -1.533 2.368 1.541"><linearGradient id="a" x1="1.694" x2="-.008" y1="-1.305" y2="-.108" gradientUnits="userSpaceOnUse"><stop stop-color="#fff" offset="0"/><stop offset="1"/></linearGradient><path d="M0 0c.333.033.683-.05 1.05-.25.333-.1.65-.283.95-.55s.417-.467.35-.6-.233-.167-.5-.1a9.338 9.338 0 0 1-.65.3c-.3.1-.633.167-1 .2-.067.133-.117.333-.15.6L0 0z" clip-rule="evenodd" fill="url(#a)" fill-rule="evenodd"/></symbol><symbol id="n" viewBox="-0.006 -3.595 2.712 3.597"><linearGradient id="b" x1="1.141" x2="1.461" y2="-3.026" gradientUnits="userSpaceOnUse"><stop stop-color="#fff" offset="0"/><stop offset="1"/></linearGradient><path d="M.35 0c.533-.033 1.1-.55 1.7-1.55.567-.934.767-1.534.6-1.8-.167-.233-.433-.3-.8-.2-.4.1-.783.4-1.15.9-.4.467-.633 1.033-.7 1.7-.033.667.083.983.35.95z" clip-rule="evenodd" fill="url(#b)" fill-rule="evenodd"/></symbol><symbol id="l" viewBox="-0.056 -2 3.306 1.988"><linearGradient id="c" x1="-3261.5" x2="-3258.5" y1="-6474.2" y2="-6474.2" gradientTransform="rotate(-36.58 8162.092 -8169.577)" gradientUnits="userSpaceOnUse"><stop stop-color="#fff" offset="0"/><stop offset="1"/></linearGradient><path d="M.05-1.2c-.2.233-.117.517.25.85.367.3.8.4 1.3.3s.9-.3 1.2-.6c.3-.267.45-.55.45-.85 0-.333-.417-.5-1.25-.5-.9 0-1.55.267-1.95.8z" clip-rule="evenodd" fill="url(#c)" fill-rule="evenodd"/></symbol><symbol id="j" viewBox="-0.03 -2.657 1.78 2.657"><linearGradient id="d" x1="-2861.8" x2="-2859.4" y1="-11609" y2="-11609" gradientTransform="matrix(.464 -.8858 .8858 .464 11611 2851.6)" gradientUnits="userSpaceOnUse"><stop stop-color="#fff" offset="0"/><stop offset="1"/></linearGradient><path d="m1.6 0 .15-.9a4.537 4.537 0 0 1-.8-.8c-.1-.167-.267-.4-.5-.7-.167-.2-.3-.283-.4-.25-.133.066-.1.316.1.75.167.367.383.717.65 1.05.267.4.533.683.8.85z" clip-rule="evenodd" fill="url(#d)" fill-rule="evenodd"/></symbol><symbol id="h" viewBox="0 -2.25 2.05 2.25"><linearGradient id="e" x1="8854.7" x2="8855.9" y1="-19695" y2="-19695" gradientTransform="rotate(-138.469 8162.017 -8168.774)" gradientUnits="userSpaceOnUse"><stop stop-color="#fff" offset="0"/><stop offset="1"/></linearGradient><path d="m2.05-1.85-.5-.4c-.267.4-.5.733-.7 1C.283-.683 0-.317 0-.15c.033.2.2.2.5 0 .3-.167.567-.4.8-.7.333-.267.583-.6.75-1z" clip-rule="evenodd" fill="url(#e)" fill-rule="evenodd"/></symbol><linearGradient id="f" x1="9.1" x2="44.249" y1="32.85" y2="32.85" gradientTransform="translate(-8.05 -24.85) scale(1.4502)" gradientUnits="userSpaceOnUse"><stop stop-color="#A9CAD1" offset="0"/><stop stop-color="#fff" offset="1"/></linearGradient><path d="M48.654 18.295c4.979 1.208 7.469 2.707 7.469 4.495 0 1.741-2.489 3.239-7.469 4.497-4.979 1.256-10.974 1.885-17.982 1.885-7.01 0-13.028-.629-18.056-1.885-4.979-1.258-7.469-2.756-7.469-4.497 0-1.789 2.49-3.287 7.469-4.495 4.979-1.256 10.998-1.885 18.056-1.885s13.052.629 17.982 1.885z" clip-rule="evenodd" fill="url(#f)" fill-rule="evenodd"/><path d="M57.283 22.574h-1.16c-.193-1.692-2.756-3.143-7.686-4.351-4.979-1.209-10.901-1.813-17.766-1.813s-12.763.603-17.693 1.813c-4.931 1.208-7.517 2.659-7.759 4.351H3.77c.629-2.031 3.48-3.722 8.556-5.076 5.125-1.402 11.191-2.103 18.201-2.103 6.962 0 13.004.701 18.128 2.103 5.074 1.354 7.951 3.044 8.628 5.076z" clip-rule="evenodd" fill="#fff" fill-rule="evenodd"/><path d="m25.306 9.013.145-1.087c.097-1.208.339-2.223.726-3.045.386-.822.821-1.233 1.305-1.233h2.466l1.813.436.362-.943c.532-.628 1.377-.942 2.538-.942.435 0 1.547-.072 3.335-.217 1.016-.048 1.765.024 2.248.217.821.291 1.909 1.136 3.263 2.538l1.016 1.813.943-.145c.579.049.701.581.362 1.595-.339 1.064-1.111 1.668-2.321 1.813-.966.145-1.74.024-2.319-.362-.291-.194-.871.241-1.741 1.304-.145.194-.869 1.234-2.175 3.119-.821 1.256-1.669 2.054-2.538 2.392l-1.233 1.886c-.482.822-1.063 1.813-1.739 2.973-.483.725-.968.991-1.45.797-.532-.194-.871-.194-1.016 0-.048.048-.435.869-1.16 2.466l-1.232 2.828a110.76 110.76 0 0 1-1.596 3.625c-.048.193-.193 1.377-.435 3.553-.146 1.209-.146 2.876 0 5.003.048.968-.218 1.522-.798 1.669-1.015.338-2.417.072-4.206-.798-2.223-1.111-3.843-2.828-4.858-5.149 0-4.978.942-8.459 2.828-10.44.58-.677.967-1.5 1.16-2.466.145-.773.436-1.233.87-1.378l1.233-.507.797-4.279a1.15 1.15 0 0 1-.652-.508c-.338-.483-.121-1.112.652-1.885l1.741-1.885c.532-.629.966-1.426 1.305-2.394.192-.484.313-.605.361-.364z" clip-rule="evenodd" fill="#719B3F" fill-rule="evenodd"/><path d="M27.916 8.434c.387.338.774.604 1.161.797.145-.338.362-.701.652-1.087.483-.725.991-1.16 1.523-1.305.773-.242 1.281-.363 1.522-.363-.29-.677-.29-1.426 0-2.248.29-.87 1.063-1.305 2.32-1.305h1.45a4.619 4.619 0 0 0-1.016.145c-.82.193-1.328.507-1.521.942-.387.725-.531 1.378-.435 1.958l.942-.507a9.895 9.895 0 0 1 2.611-.943 15.868 15.868 0 0 0 2.538-.725c.725-.241 1.208-.362 1.45-.362.435 0 .989.483 1.667 1.45-.726-.435-1.402-.556-2.03-.363l-1.596.58 1.088-.217c.821 0 1.522.338 2.103 1.016.049.048.459.556 1.232 1.522.194.193.412.29.653.29a5.43 5.43 0 0 0 1.306-.145c-.484 1.257-1.112 1.523-1.885.797-1.016-.967-1.597-1.499-1.741-1.596-.677-.483-1.33-.7-1.959-.652l-2.175.217.073.363c.145.29.483.507 1.015.653.774.241 1.548.411 2.321.507 0 .145-.75.218-2.248.218-.677 0-1.306-.218-1.887-.653-.435-.291-.917-.314-1.45-.072l-3.045 1.378 2.538 1.376c1.112.484 2.031.484 2.756 0-1.209 1.112-2.151 1.668-2.828 1.668-.193 0-.75-.242-1.668-.725-.821-.483-1.475-.605-1.957-.363-.774.339-1.5.919-2.176 1.741-.822.87-1.378 1.813-1.668 2.828l-.725 2.973 2.756-.581c1.063-.29 1.692-.483 1.885-.579.241-.146.579-.629 1.015-1.45.629-1.063 1.208-1.645 1.74-1.741l-1.74 3.117c-.531 1.063-.918 1.741-1.16 2.031a2.35 2.35 0 0 1-1.813.797 48.433 48.433 0 0 0-1.958-.072c-.532 0-.894.194-1.087.581-.338.579-.943 1.376-1.813 2.392.097.726.605.726 1.523 0 .87-.773 1.715-1.232 2.538-1.378.242.581-.073 1.33-.942 2.249-.387.435-1.982 2.635-4.786 6.599-2.658 3.383-4.206 4.181-4.641 2.392-.338-1.353-.242-2.778.29-4.276.629-1.307.943-2.104.943-2.394-.338-1.886-.363-3.167-.072-3.844.193-.435.508-.845.942-1.232l.653-.507.435.941c.338.629.677.943 1.015.943.628 0 1.015-.218 1.16-.653-.967-.629-1.475-1.499-1.522-2.61 0-.246-.048-.827-.146-1.74.152.78.419 1.361.797 1.74l1.668 1.741c.821-.484.991-1.306.507-2.466-.387-.821-.604-1.378-.652-1.668-.145-.387-.169-.992-.073-1.813l.653-3.916.145 4.569c.096.725.435 1.256 1.015 1.595 0-1.401.193-2.707.581-3.915.193-.774.435-1.426.725-1.958.145-.291.266-.483.363-.58-.725 0-1.112-.436-1.161-1.306-.193-.87-.314-1.499-.363-1.885-.145-.677.024-1.257.508-1.741.484-.58.895-.942 1.233-1.088.242-.097.58-.145 1.015-.145h.544c-.569.078-1.089.489-1.559 1.233-.821 1.307-.845 2.249-.072 2.83z" clip-rule="evenodd" fill="#5A873C" fill-rule="evenodd"/><path d="M29.729 13.075c.774-.919 1.548-1.161 2.32-.725.919.435 1.112.749.58.942-.145.048-.482.581-1.015 1.596-.58.966-1.088 1.474-1.523 1.522l-2.319.435c.676-1.741 1.329-2.997 1.957-3.77zm-3.988-3.844c.581.387.846.773.798 1.16-.048.242-.291.701-.725 1.378-.387.87-.436 2.151-.145 3.844-.291-.291-.46-.992-.508-2.103a18.717 18.717 0 0 1 .073-2.901c.096-1.112.265-1.572.507-1.378zm-2.611 5.076c.338.048.532.29.58.725 0 .29-.048.821-.146 1.595-.048.823.218 1.813.798 2.974-1.063-.823-1.717-1.645-1.958-2.466a4.464 4.464 0 0 1 0-1.959c.146-.627.388-.917.726-.869zm6.817-9.934c.29.097.386.459.29 1.088-.048.628-.314 1.063-.797 1.305-.436.193-.701.46-.798.798a.91.91 0 0 0 0 .508c-.242-.049-.363-.532-.363-1.45 0-.725.169-1.306.508-1.741.338-.485.724-.653 1.16-.508zm4.713.145.435-.725c.435-.483.943-.773 1.522-.87a41.664 41.664 0 0 0 1.885-.435c.533-.048.678.096.437.435-.098.193-.774.387-2.031.58-1.209.242-1.959.58-2.248 1.015zm.072 4.06c.387.194.652.291.797.291.097-.048.267-.097.509-.145.192 0 .507-.05.941-.146.436 0 .943.17 1.522.508.533.387.581.604.146.652-.773 0-1.378.024-1.813.073-.483.048-.967-.146-1.45-.581l-.652-.652zM29.149 20.47c-.193.291-.411.483-.652.581a2.095 2.095 0 0 0-1.161.507c-.677.581-1.426.749-2.248.507.532-.241 1.088-.651 1.667-1.232.387-.435.943-.701 1.668-.797.678-.146.919 0 .726.434zM39.228 6.765h1.596c.483 0 .918.121 1.305.363s.532.484.437.725c-.05.242-.339.338-.871.291a2.72 2.72 0 0 1-1.45-.58l-1.017-.799z" clip-rule="evenodd" fill="#7BB342" fill-rule="evenodd"/><path d="M5.728 10.247c.048-.146.266-.605.653-1.378.628-1.305.967-2.006 1.015-2.104a2.012 2.012 0 0 1 1.233-.942l2.466-.797C12.207 2.754 13.028 1.352 13.56.82c.291-.29.773.169 1.45 1.377.387.677.967 1.886 1.741 3.625.435.871.556 1.499.362 1.886-.435.773-.677 1.402-.725 1.885-.097.919-.097 1.595 0 2.031.048.289.169 1.136.363 2.538.145 1.014.266 1.474.362 1.376.29-.241.677-.048 1.16.581.532.629.725.967.58 1.016-.29.096-.411.507-.363 1.232.049.773.145 1.136.291 1.088.387-.096.846.17 1.378.797.58.677.895 1.087.942 1.233.193.483.701 1.354 1.522 2.61 2.804 4.255 3.433 6.284 1.886 6.092-1.063-.146-2.2-.194-3.408-.146a432.77 432.77 0 0 1-3.191.146c-2.514 0-4.351-.122-5.51-.362-.773-.194-1.596-.992-2.466-2.394-.725-1.208-1.354-2.586-1.885-4.133-.29-.871-.532-1.402-.725-1.596-.048-.048-.121-.387-.217-1.014-.097-.823-.242-1.258-.436-1.306l-.29.145c-.774-1.256-1.233-2.272-1.378-3.045-.097-.919.048-2.32.435-4.207.192-1.159.29-1.836.29-2.028z" clip-rule="evenodd" fill="#719B3F" fill-rule="evenodd"/><path d="M11.456 6.113c.483-1.837 1.232-2.949 2.248-3.336.58-.193.895.024.943.653-.146-.097-.339-.121-.58-.072-.435.048-.822.435-1.16 1.16-.387.773-.604 1.644-.653 2.61-.048.291-.072 1.257-.072 2.9 0 1.402.048 2.634.145 3.698l.218-.725c.338-1.208.797-1.957 1.377-2.248.338-.145.628-.579.87-1.304.387-1.064.653-1.717.797-1.958.291-.435.556-.652.798-.652.146 0 .242.048.29.145l-.435.435c-.193.193-.314.386-.362.58-.048.048-.146.484-.291 1.305-.145.581-.314 1.016-.507 1.306-.097.193-.388.604-.871 1.232-.58.967-.942 2.271-1.087 3.916-.048 1.063 0 1.595.145 1.595a10.54 10.54 0 0 1 1.595-2.248c.436-.435.725-1.112.87-2.03l.073-1.233v2.248c0 .774-.339 1.837-1.016 3.191-.628 1.257-.87 2.321-.725 3.19.145.581.314.919.508 1.016.145 0 .362-.122.652-.362.339-.242.798-1.136 1.378-2.684.29-.821.604-1.45.942-1.885l.508-.363-.508 1.306c-.29 2.03-.483 3.191-.58 3.48-.387 1.548-.822 2.345-1.305 2.394l.58 1.088c.193.435.411.772.653 1.015 1.354-.29 2.224-.967 2.61-2.03.193-.629.338-1.329.435-2.104v-.941l.218.579c.145.484.217.967.217 1.45 0 .725-.024 1.186-.073 1.378-.048.339-.242.871-.58 1.596-.532 1.064-.967 1.595-1.305 1.595l2.61-.072c.822-.096 1.692-.484 2.611-1.159l.797.869-.072 2.61c-.242.581-.991.871-2.249.871a26.842 26.842 0 0 1-5.873.362c-1.257-.05-2.562-.604-3.916-1.668l-1.667-1.669 1.813-.145c.87 0 1.523-.218 1.958-.652a5.263 5.263 0 0 0-1.522-.217c-1.112 0-2.006-.339-2.683-1.016-.29-.29-.58-.773-.87-1.45l-.362-.873.435.219c.338.193.653.458.943.797.29.387.532.629.725.726.145.096.483.242 1.015.435.677.29 1.016.17 1.016-.362l-1.958-1.886a73.22 73.22 0 0 1-2.248-1.304c-.484-.29-.822-1.257-1.016-2.9-.048-.387-.291-.919-.725-1.596-.387-.579-.58-1.04-.58-1.378l.29-4.205v2.03c0 .581.121 1.087.363 1.524.097.289.338.701.725 1.232.242.387.508 1.136.798 2.248.097.387.314.677.652.871.436.289.774.604 1.016.942.628.821 1.185 1.402 1.667 1.741l-.508-1.16c-.193-.435-.313-1.136-.362-2.103l-.072-1.306a27.245 27.245 0 0 0-2.248-2.827c-.581-.629-.943-1.185-1.088-1.668-.097-.338-.145-1.015-.145-2.031 0-.725.072-1.499.217-2.32l.217-1.091-.072 1.45c0 1.256.387 2.441 1.16 3.553.677 1.063 1.281 1.643 1.813 1.741v-3.191c0-1.16.073-2.321.218-3.481l.217-1.377z" clip-rule="evenodd" fill="#5A873C" fill-rule="evenodd"/><path d="M10.731 11.841c.193.677.169 1.087-.073 1.233A36.998 36.998 0 0 1 8.7 10.463c-.435-.627-.628-1.305-.58-2.03.048-.629.217-1.161.508-1.595.484-.58.942.193 1.378 2.32.242 1.209.483 2.104.725 2.683zm.29-5.365-.217 3.408c-.483-1.837-.725-2.998-.725-3.481 0-.387.145-.604.435-.652.289-.048.459.193.507.725zm1.523 2.827c-.145-1.546 0-2.731.435-3.553.773-1.498 1.354-1.837 1.741-1.015.387.773.048 1.426-1.016 1.958-.484.29-.871 1.16-1.16 2.61zm0 1.669c.241-.773.773-1.62 1.595-2.538.29-.29.556-.798.798-1.523.242-.677.411-1.063.508-1.16.242-.193.363-.073.363.363 0 .435-.193.966-.581 1.595-.629.917-1.523 2.005-2.683 3.263zm-4.278 5.22a33.532 33.532 0 0 1-.797-1.232c-.242-.484-.291-.895-.146-1.234.338-.87.846-.168 1.522 2.104.387 1.209 1.016 2.199 1.886 2.973.628.919.797 1.474.507 1.668l-.218-.653c-.193-.579-.677-.966-1.45-1.16-.241-.096-.483-.411-.725-.943a28.381 28.381 0 0 0-.579-1.523zm5.22-.217c-.097-1.257.193-2.321.871-3.19.532-.629.918-.871 1.16-.726.242.097.242.435 0 1.016-.145.387-.314.604-.508.651-.241.098-.483.314-.725.653-.194.29-.459.822-.798 1.596zm1.16 4.64c-.242-.627-.121-1.474.362-2.538.193-.435.363-1.038.508-1.813.097-.387.242-.579.435-.579.581 0 .532.653-.144 1.957-.193.484-.46 1.04-.798 1.668-.241.483-.363.918-.363 1.305zm1.741 3.046c.773-.242 1.16-.797 1.16-1.668 0-.677.193-1.16.58-1.45.387-.241.604 0 .653.725.097.967-.387 1.813-1.45 2.538a.936.936 0 0 0-.182.182c-.106-.094-.359-.204-.761-.327zm5.148-.29c.483.145.677.58.58 1.306-.096.579-.337 1.136-.725 1.667-.435.532-1.281.677-2.538.435l.581-.289c.338 0 .773-.58 1.305-1.74.193-.581.338-.943.435-1.088.048-.243.169-.34.362-.291z" clip-rule="evenodd" fill="#7BB342" fill-rule="evenodd"/><path d="M53.078 16.12c-2.225.725-3.795 1.499-4.713 2.32-.437.338-1.04.484-1.813.436-.726-.049-1.402.193-2.031.726-.629.579-1.33 1.739-2.104 3.48-.821 1.836-1.304 2.828-1.45 2.973-.24.242-.725 1.015-1.45 2.321-.821 1.304-1.86 2.175-3.117 2.609-1.402.726-2.345 1.16-2.828 1.306-.629.241-1.692.193-3.19-.146-.822-.145-2.03-.24-3.626-.29-.725 0-1.233-.289-1.522-.87-.193-.387-1.087-.991-2.683-1.813-1.112-.629-1.281-1.16-.508-1.595 1.112-.629 1.885-1.111 2.321-1.45.628-.484 1.74-1.523 3.335-3.118.483-.483 1.33-.459 2.538.072 1.547.725 2.466 1.087 2.756 1.087.821 0 1.475-.168 1.957-.507.532-.484 1.016-1.33 1.451-2.538.241-.629.531-2.007.87-4.134.29-1.45.629-2.248 1.016-2.392 2.996-.919 4.833-2.055 5.51-3.409.726-1.45 1.112-2.2 1.16-2.248.387-.532.871-.556 1.45-.072.242.194.726.797 1.45 1.813.484.581 1.016.87 1.597.87h4.351l3.045 2.684c.387.241.894 1.378 1.522 3.407a7.47 7.47 0 0 0-1.74-1.015c-1.354-.627-2.539-.797-3.554-.507z" clip-rule="evenodd" fill="#719B3F" fill-rule="evenodd"/><path d="M52.57 14.163c2.417.675 3.844 1.184 4.278 1.522.919.725 1.426 1.378 1.522 1.957-.579-.531-1.136-.797-1.667-.797-.532.145-.968.266-1.306.363-.581.096-1.185-.024-1.813-.363-.193-.096-1.111-.677-2.756-1.74-1.111-.677-1.813-.966-2.102-.87-.29.096-.532.338-.725.725-.387.725-.653 1.184-.799 1.378-1.45 2.514-2.368 3.722-2.755 3.625-1.596-.338-2.634-.412-3.118-.218-.436.194-.726.411-.87.653l-.072.362.579-.146c.291-.096.991.098 2.104.581.387.194.821.242 1.306.145a3.199 3.199 0 0 1-1.088.509c-.629.096-1.281 0-1.958-.291-.58-.194-1.402.072-2.466.797-.773.533-1.522 1.596-2.248 3.19l1.813-.58c.339 0 .701-.241 1.088-.726.435-.338.896-.507 1.378-.507.436 0 .678.097.726.29h-.653c-.192 0-.459.217-.797.653-.387.482-.677.773-.87.869-.242.097-.557.145-.943.145-.29 0-.482.098-.58.291l-.145.871c-.048.24-.024.313.072.216a1.73 1.73 0 0 1 .797-.362c.533-.096 1.064.024 1.597.362h-.726c-1.111 0-2.297.701-3.553 2.104-.58.677-2.104 1.281-4.568 1.813-2.03.483-3.432.726-4.206.726-.532 0-2.224-.991-5.076-2.973-.339-.242-.532-.459-.581-.653 0-.193.097-.314.291-.362.532-.145 1.62-.846 3.263-2.104l2.538-2.466-.362 1.451c-.242 1.111-.338 2.078-.291 2.9.436-.387.871-.99 1.306-1.813.483-1.014 1.305-1.57 2.465-1.667.339-.048.678.049 1.016.291.387.24.435.338.146.289-.629-.097-1.281.146-1.958.725-.677.629-1.064 1.161-1.161 1.596l.581-.071c.435-.05.869-.171 1.305-.363.532-.193 1.208-.701 2.03-1.523.387-.387.749-.531 1.088-.435.435.096.508.193.218.29-.242 0-.773.29-1.596.869-.58.437-.797.701-.652.799l1.233-.146c.869-.145 1.716-.653 2.537-1.522.193-.194.339-.581.436-1.16.145-.677.362-1.209.652-1.596a4.794 4.794 0 0 0 .726-1.595c.145-.725.266-1.354.362-1.885.241-1.258.507-2.175.797-2.756.242-.483.605-.75 1.088-.797.242-.048.459-.048.653 0a1.615 1.615 0 0 0-.581.29c-.435.241-.749.531-.941.87-.194.338-.314.797-.362 1.378v1.885c0 1.015-.098 1.62-.291 1.813.193-.096.435-.386.726-.869.338-.435.579-.773.725-1.016.291-.435.483-.846.579-1.232.242-1.015.726-2.007 1.451-2.974.677-.966 1.137-1.546 1.378-1.739l-.363.87-1.307 2.391c-.339.627-.363 1.038-.074 1.232.484-.338 1.016-.797 1.597-1.378.435-.387.677-.653.725-.797v-.797a20.922 20.922 0 0 1-.072-1.522c0-.677.097-1.209.289-1.596l1.016-1.741-.435 1.668c-.194.435-.267.87-.219 1.306.05.289.122.749.219 1.376.096.484.266.509.507.074.146-.29.362-.799.652-1.524a2.29 2.29 0 0 0 .291-1.16v-1.45c.048-.483.145-.87.29-1.16l.217-.29-.072 3.481 1.233-.508c.87-.145 1.475.146 1.813.871.096.24 1.256.7 3.479 1.378z" clip-rule="evenodd" fill="#5A873C" fill-rule="evenodd"/><path d="M40.099 15.032c-.631.396-1.041 1.412-1.233 3.045-.097.919-.411 1.982-.942 3.19.145-.579.217-1.087.217-1.522 0-1.063.098-2.055.29-2.973.097-.581.339-1.015.726-1.306.194-.145.387-.217.581-.217l.361-.217zm.869 2.682c0-.145.363-1.112 1.088-2.9l.798-1.885-.508 2.61c-.048.291-.096.677-.145 1.161-.098.387-.242.604-.436.652-.145.049-.313.218-.507.508-.144.145-.241.097-.29-.146zm4.135-8.339c.096-.096.192-.168.288-.217l-.435.797c-.338.677-.482 1.232-.435 1.668.048.387.169.773.362 1.16.194.386.267.701.219.941-.05.533-.267.919-.653 1.162-.532-.871-.701-1.789-.509-2.756.05-.144.267-.821.653-2.031.097-.287.267-.53.51-.724zm.941 3.047.072-1.885c-.048-.532-.024-.895.073-1.087.145-.242.313-.194.508.145.144.194.29.458.435.797.096.29.242.484.435.581.387.241.604.531.653.87-1.16.24-1.886.433-2.176.579zM31.76 24.604c-.049.29-.483.556-1.306.798-.483.145-.919.436-1.305.87a3.352 3.352 0 0 0-.399.472c.121-.205.253-.437.399-.689.386-.628.773-1.064 1.161-1.305.387-.29.749-.387 1.088-.29a.49.49 0 0 1 .362.144zm-.146 1.885c.048-.193.146-.412.29-.652a2.33 2.33 0 0 1 1.232-1.016c.387-.194.87-.314 1.45-.362.387-.049.653-.194.798-.436l.653-1.087-.073.435a2.328 2.328 0 0 1-.363 1.016c-.338.677-.966 1.231-1.885 1.667-.532.193-1.039.338-1.522.436h-.58zm-4.786 1.015c0-.531.073-1.257.218-2.176.145-1.353.532-2.077 1.16-2.176.677 0 1.136.024 1.378.074l.506.072-.58.29c-.483.241-.845.531-1.087.87-.193.29-.532.991-1.015 2.103-.241.629-.435.943-.58.943zm11.167-3.915a5.3 5.3 0 0 1 .726-1.087c.629-.725 1.306-1.064 2.03-1.016 1.16.048 1.837.241 2.03.579-.291-.096-1.04 0-2.248.291-.725.194-1.354.459-1.885.797-.291.146-.508.29-.653.436z" clip-rule="evenodd" fill="#7BB342" fill-rule="evenodd"/><path d="M51.772 33.305c-.725 1.402-2.055 2.272-3.988 2.611-2.562.387-5.583.773-9.063 1.16-2.514.482-4.134.652-4.858.507-1.16-.241-1.692-1.691-1.596-4.351.097-2.368.87-2.853 2.32-1.45 1.74 1.645 2.852 2.007 3.336 1.088 1.595-2.805 3.045-6.116 4.351-9.934.58-1.546 1.16-2.804 1.741-3.771a43.133 43.133 0 0 0 1.667-2.682c1.258-2.127 2.03-3.529 2.321-4.207.338-1.208.603-2.029.797-2.464.29-.725.846-1.185 1.667-1.378.29-.049 1.063.121 2.321.507.677.242 1.28-.169 1.813-1.232.678-1.354 1.595-2.079 2.755-2.175 1.21-.049 1.813.676 1.813 2.175 0 1.112-.41 3.167-1.231 6.164-.968 3.529-1.522 5.801-1.669 6.816-.24 1.739-.531 3.117-.869 4.133-.242.677-.821 1.957-1.741 3.844-.581 1.159-1.21 2.705-1.887 4.639z" clip-rule="evenodd" fill="#719B3F" fill-rule="evenodd"/><path d="M54.311 8.144c.048-.387.194-.58.435-.58.194 0 .459-.024.798-.073.29-.048.338.049.146.29-.29.291-.484.508-.581.653-.192.291-.313.701-.362 1.232-.048.435-.072.991-.072 1.668-.048.531-.193.966-.435 1.305-.967 1.112-1.498 1.716-1.596 1.813a27.925 27.925 0 0 0-2.755 3.337c-.677.966-.726 1.353-.146 1.16.532-.194 1.426-1.063 2.684-2.61 2.175-2.756 3.359-4.254 3.553-4.497.773-.87 1.475-1.354 2.103-1.45-.967 1.112-1.981 2.465-3.045 4.06-1.934 2.901-3.408 4.569-4.424 5.004l-2.175 1.16-.362.653c-.097.387.338.459 1.304.218 1.258-.291 2.226-.604 2.9-.943.775-.483 1.378-1.16 1.813-2.029l2.103-3.481c-.629 3.094-1.256 4.882-1.885 5.366-.387.386-.701.677-.943.869-.387.291-1.16.629-2.319 1.016l-3.626 1.088-.218.869c.146.484.967.509 2.466.074 2.175-.726 3.335-1.112 3.48-1.162.579-.24.991-.603 1.232-1.087l.653-1.087.071 1.596c-.29 1.112-1.231 1.813-2.828 2.103-1.643.339-2.803.651-3.479.941-.194.049-.677.339-1.45.871-.725.531-1.258.846-1.596.942l.943.218c.821.097 1.716.024 2.682-.218 1.548-.339 2.95-.508 4.206-.508a120.646 120.646 0 0 1-6.091 6.092c-4.108 3.674-6.235 4.664-6.38 2.973-.05-3.481-.122-5.511-.219-6.091-.048-.387.169-1.04.653-1.958l.253-.436c-.007.231.15.4.472.508.58.192 1.016.217 1.305.072.29-.096.29-.362 0-.797-.339-.435-.579-.726-.725-.871-.145-.192-.241-.459-.289-.798l-.074-1.885.437 1.016c.339.677.676 1.016 1.014 1.016.581 0 .943-.242 1.088-.726l-.725-1.887c-.531-1.111-.58-2.343-.145-3.697.096-.338.096-.145 0 .581-.097 1.016-.024 1.45.218 1.304l.507-.289.219-1.016c.144-.533.362-.847.651-.943.193-.096.484-.145.871-.145.192-.048.314.024.362.217.048.098.096-.048.145-.435l.218-1.088c0-.145.024-.29.072-.435.097-.338.314-.507.653-.507h.869c.194-.242.218-.628.072-1.161l-.217-.725c.145-.096.145-.459 0-1.088l-.072-.579-.146-.362.146-1.306.435 1.306c.291.917.531 1.426.726 1.522.145.048.267.168.362.362l.072-.218.072-1.45c0-.387-.145-.675-.435-.87-.097-.048.048-.144.435-.29.773-.241 1.378-.363 1.813-.363.678 0 1.064-.024 1.16-.072.339-.194.557-.653.653-1.378.145-1.159.242-1.788.29-1.884z" clip-rule="evenodd" fill="#5A873C" fill-rule="evenodd"/><path d="M53.804 22.646c-1.983.87-3.361 1.426-4.134 1.668-.483.145-1.016.555-1.595 1.231a9.856 9.856 0 0 0-.726.943h.726c.725.049 1.667.192 2.828.435 1.643.291.579 2.32-3.191 6.092-3.577 3.576-5.294 3.818-5.147.725.096-1.499-.05-2.876-.437-4.134-.435-1.16-.604-2.005-.507-2.538l.762-2.973c.094.241.299.556.616.943.725.87 1.256 1.305 1.595 1.305-.339-.145-.579-.821-.726-2.029-.096-.775-.072-1.813.072-3.119l.219-1.74.435 1.958c.339 1.304.725 1.958 1.16 1.958s.652-.267.652-.797a19.035 19.035 0 0 1-.145-2.175l.145-4.859c.435 4.254.919 5.632 1.45 4.134.387-1.16.677-1.982.871-2.465.289-.725.821-1.645 1.595-2.756.629-.966 1.282-1.691 1.957-2.175.484-.387.75-.701.799-.942l.145-.943c.145.629-.193 1.498-1.016 2.61l-2.138 3.337c.218-.086.495-.159.834-.218 1.353-.242 2.658-1.354 3.914-3.335-.676 1.498-1.474 2.682-2.392 3.553-1.402 1.112-2.298 1.909-2.684 2.392-.531.629-.895 1.112-1.088 1.45-.241.581.121.847 1.088.797.677-.096 1.185-.193 1.523-.289.606-.203 1.089-.469 1.45-.799-1.042 1.098-2.034 1.775-2.974 2.031-.726.194-1.232.507-1.522.943-.241.483-.121.725.362.725.725 0 1.716-.146 2.973-.437l2.251-.507z" clip-rule="evenodd" fill="#769E3F" fill-rule="evenodd"/><path d="M51.266 8.796c.048 0 .097.12.145.362 0 .338.048.629.145.87.242.435.677.701 1.306.797H51.7c-.532 0-.919-.387-1.16-1.16-.098-.291-.266-.459-.508-.507-.145 0-.169-.096-.072-.29a.538.538 0 0 1 .58-.218l.726.146zm-2.104.87c0 .338.241 1.474.726 3.409.078.704.187 1.139.325 1.304a3.908 3.908 0 0 1-.979-1.015c-.193-.289-.314-.821-.362-1.595l-.072-1.088c.048-.29.097-.557.145-.797.096-.485.169-.557.217-.218zm-1.306 4.206c0 .579.363 1.329 1.088 2.248h-.507c-.435 0-.896-.314-1.378-.943-.097-.192 0-.627.29-1.304.339-.63.507-.63.507-.001zm9.065-7.324c1.063-.628 1.33.073.797 2.103-.145.581-.289.895-.435.943-.29.096-.652.29-1.088.581l-1.595 1.45c.241-.823.411-1.692.507-2.611.097-.968.702-1.789 1.814-2.466zm-3.407 6.89c.869-.775 1.184-.799.941-.074-.241.774-.701 1.426-1.377 1.958-1.306 1.16-1.74 1.402-1.306.725.145-.194.29-.532.435-1.015.242-.483.678-1.015 1.307-1.594zm.724 2.392 1.667-2.755a13.772 13.772 0 0 1 2.394-2.974l-.218.291a21.366 21.366 0 0 1-1.16 3.119c-.241.628-.749 1.474-1.522 2.538-1.063 1.981-1.957 3.215-2.683 3.698-.437.291-.943.387-1.523.291l-.652-.218 1.813-1.522c.24-.245.869-1.067 1.884-2.468zm1.233 1.233c.532-.677.797-.847.797-.508 0 .146-.072.532-.217 1.16-.096 1.016-.772 2.273-2.03 3.771-.579.773-1.063 1.088-1.45.942l-.436-.507 1.958-2.104c.532-.579.991-1.498 1.378-2.754z" clip-rule="evenodd" fill="#7BB342" fill-rule="evenodd"/><path d="M51.12 14.525c-1.45 2.514-2.416 4.713-2.9 6.599-.339 1.546-.87 3.818-1.595 6.816-.581 2.416-1.04 3.965-1.379 4.64-.628 1.112-1.426 1.741-2.393 1.887-1.112.192-1.401-.847-.87-3.118.919-.436 1.885-1.886 2.9-4.352a79.742 79.742 0 0 1 2.973-7.323c.677-1.45 1.765-3.263 3.264-5.438.513-.786.995-1.499 1.45-2.14a28.668 28.668 0 0 0-1.45 2.429z" clip-rule="evenodd" fill="#D2D6A7" fill-rule="evenodd"/><path d="m44.812 27.794 1.667-5.292c.532-1.692 1.524-3.675 2.975-5.947a47.553 47.553 0 0 1 2.029-2.901c-.241.339-.531.75-.87 1.234-.677.966-1.209 1.813-1.596 2.538-.918 2.03-1.691 4.277-2.319 6.743-.773 3.434-1.402 5.415-1.886 5.947-.338.387-.484.289-.435-.29 0-.582.144-1.259.435-2.032z" clip-rule="evenodd" fill="#DBDDBB" fill-rule="evenodd"/><path d="M19.65 22.501c.483 0 .967.096 1.45.289.338.05.725-.338 1.16-1.16.677-1.304 1.04-1.958 1.087-1.958.242-.338.58-.508 1.016-.508h2.103c.532-.048.87-.096 1.015-.145.193-.194.46-.386.797-.581a4.43 4.43 0 0 0 .943-.725c.242-.145.604-.096 1.088.146.387.192.773.459 1.16.797.192.145.386.168.579.072.242-.048.46-.072.653-.072.193-.048.482-.363.87-.943a33.38 33.38 0 0 1 .652-1.522c.097-.291.58-.435 1.451-.435.725 0 1.136-.169 1.231-.507.049-.098.339.072.87.507.484.386 1.548.943 3.19 1.668 1.45.627 2.321 1.16 2.61 1.595.194.242.557.387 1.088.435.437 0 .967.508 1.596 1.522 1.016 1.74 1.571 3.239 1.667 4.496.05.387.098.942.146 1.667 0 .581-.267.92-.798 1.016-7.251 2.176-12.666 2.997-16.243 2.466-.918-.145-4.013-.194-9.282-.145-3.577.048-5.487-.46-5.728-1.523-.291-1.16.072-2.44 1.087-3.843a14.584 14.584 0 0 1 2.542-2.609z" clip-rule="evenodd" fill="#5A873C" fill-rule="evenodd"/><path d="M37.271 18.513c.096.048.58.555 1.45 1.522.677.677 1.33 1.016 1.957 1.016.146 0 .749-.074 1.813-.218.533-.096 1.016 0 1.45.291.339.29.823.653 1.45 1.087.533.387.871.749 1.016 1.088.291.531.604 1.256.943 2.175-1.74-2.079-2.973-3.214-3.697-3.409a6.064 6.064 0 0 0-1.307-.144c-.58.048-1.111.072-1.595.072-.677 0-1.087-.024-1.233-.072-.192-.048-.629-.314-1.304-.797-.775-.533-1.21-.822-1.307-.871-.242-.048-.604.024-1.087.218-.58.242-1.185.629-1.813 1.16-.628.533-.966.919-1.015 1.16-.242 1.016.218 1.402 1.378 1.161.531-.098 1.159-.338 1.885-.725.58-.194 1.16-.074 1.74.362l2.248 1.667c.677.435 1.063.677 1.16.726.242.096.604.121 1.087.072.726-.049 1.524.266 2.394.942-.435.194-1.45.097-3.045-.29a8.436 8.436 0 0 1-2.175-.869c-.533-.339-1.04-.533-1.524-.581-1.498-.531-2.416-.677-2.755-.435-.29.194-1.063.387-2.32.58l1.45.145c1.015.145 1.788.436 2.32.87.049.05.387.412 1.016 1.088.241.242.628.436 1.16.58.918.242 2.104.362 3.554.362-.919.773-1.789 1.16-2.612 1.16-6.332-.629-10.393-.918-12.181-.869-2.272.29-3.94.482-5.004.579-1.934.242-2.61.05-2.03-.579.435-.677 1.257-1.45 2.465-2.321 1.112-.773 2.175-1.353 3.191-1.739 1.305-.484 2.054-.943 2.248-1.378-.048-.773.193-1.499.725-2.175.338-.435.846-.797 1.523-1.088.338-.146.651-.266.942-.363l-.726.726c-.531.531-.797 1.039-.797 1.522 0 .386-.025.628-.073.725l.726-.363c1.354-.435 2.175-.967 2.465-1.595.193-.629.339-1.087.436-1.378.193-.533.531-.797 1.016-.797.241 0 .7-.074 1.377-.218.338-.048.676.024 1.015.218z" clip-rule="evenodd" fill="#4F7835" fill-rule="evenodd"/><path d="m21.245 19.673 1.595 1.16-.652 1.306a11.011 11.011 0 0 0-.798 3.189c-.145 1.161.121 2.176.798 3.047.628.725 1.329 1.136 2.103 1.231.725.049 1.91-.023 3.553-.217 1.741-.146 2.586-.29 2.538-.436 1.934-6.188 2.924-9.499 2.973-9.934 0-.29.072-.531.218-.725l.145-.218 1.016 2.611c.725 1.933 1.232 3.407 1.522 4.423.339 1.402-1.354 2.997-5.076 4.786-3.867 1.836-6.864 2.175-8.991 1.015-1.934-1.063-2.659-3.263-2.175-6.598l1.231-4.64zm17.91-10.514 1.813-.653.726 1.016c.435.579.677.653.725.217.049-.531.75-.846 2.104-.942 1.306-.096 2.127.072 2.466.507.387.484.701 1.04.941 1.668-.579.435-1.111.653-1.595.653-.773 0-1.281.289-1.522.87l-1.596 3.988-.217-.072-1.959-1.088c-.145.241-.604.701-1.376 1.378-1.162.966-2.298 1.45-3.409 1.45-.726 0-1.112-.146-1.16-.436l4.059-8.556zm-18.49 8.883c-.87-.464-1.305-.79-1.305-.979l-.797-5.657.942-2.32c2.175.87 3.311 1.353 3.408 1.45.096.097.169.725.217 1.885.048 1.063.048 1.691 0 1.885 0 .096-.097.458-.291 1.087s-.411.943-.652.943c-.097 0-.411-.242-.943-.725-.387-.338-.581-.314-.581.072v2.359z" clip-rule="evenodd" fill="#52702F" fill-rule="evenodd"/><path d="m30.091 17.135.073 2.029c.048.871.266 1.692.652 2.466l-1.74 1.522-1.958-6.017-.508 1.667c-.29.823-.604 1.015-.942.581-.339-.435-.46-1.063-.363-1.885.193-.919.895-2.031 2.103-3.335 1.401-1.45 2.538-2.055 3.408-1.813.918.193 1.475.749 1.668 1.667.145.871-.049 1.692-.58 2.466-.387.628-.798.919-1.232.87l-.581-.218zm22.479 1.523 1.306-1.813c1.208 3.77 1.426 6.357.652 7.759-.774 1.354-1.644 1.958-2.611 1.813l.437-8.121.216.362z" clip-rule="evenodd" fill="#52702F" fill-rule="evenodd"/><path d="M19.939 4.88c.677-1.112 1.306-1.837 1.886-2.175.338-.146.58-.193.725-.146l2.393.291-.218 5.511c-.193 2.949-.483 5.125-.87 6.527-3.287-1.162-5.293-2.175-6.019-3.046l2.103-6.962z" clip-rule="evenodd" fill="#D66E40" fill-rule="evenodd"/><linearGradient id="g" x1="-5.895" x2=".025" y1="-29.113" y2="-29.113" gradientTransform="rotate(142.548 .186 -13.79) scale(1.4503)" gradientUnits="userSpaceOnUse"><stop stop-color="#FF543D" offset="0"/><stop stop-color="#B31205" offset="1"/></linearGradient><path d="M25.016 2.85c-.29.048-.652.266-1.088.652-.967.725-1.909 1.886-2.828 3.481-1.257 2.224-1.91 4.157-1.958 5.801-.29.144-.725-.17-1.305-.943-.338-.531-.725-.918-1.16-1.16l-.58-.218c0-1.547.411-3.335 1.233-5.366.532-1.305 1.498-2.538 2.9-3.698.725-.58 1.378-1.04 1.958-1.378l.87.653c.58.435 1.233 1.16 1.958 2.176z" clip-rule="evenodd" fill="url(#g)" fill-rule="evenodd"/><path d="m23.783 13.726-1.378-3.625c-.628-1.981-.387-3.456.725-4.423.484-.387.822-.483 1.016-.29.241.193.337.894.29 2.103-.097 1.74-.315 3.819-.653 6.235zm-.218.291c.146.387.193.653.146.797l-1.522-.507-2.683-1.306c.097-.821.266-1.498.508-2.029.193-.484.435-.847.725-1.088.386-.29.701-.29.942 0 .434.435 1.063 1.813 1.884 4.133z" clip-rule="evenodd" fill="#AD5630" fill-rule="evenodd"/><path d="m23.638 8.144-.145.87-.291-2.03c.097-.145.218-.049.362.29.098.338.122.628.074.87zm-2.248 4.35c-.435.048-.725-.048-.87-.291-.097-.192-.073-.362.072-.507.097-.048.266.072.508.362.096.146.193.292.29.436z" clip-rule="evenodd" fill="#AB782A" fill-rule="evenodd"/><path d="M23.565 7.636c-.096 1.064-.144 1.014-.144-.145-.049-.145-.025-.218.072-.218s.121.121.072.363z" clip-rule="evenodd" fill="#E0BB82" fill-rule="evenodd"/><use transform="matrix(1.4502 0 0 -1.4502 21.1 .65)" y="-2.25" width="2.05" height="2.25" xlink:href="#h"/><path d="M31.76 13.872c.773.966.895 1.837.362 2.61-.531.387-1.063.653-1.596.797l-1.595.146.218 1.088c.193.773.411 1.304.653 1.595.387.435.58.701.58.797l-1.305.797a110.93 110.93 0 0 1-1.45-2.538c-.967-1.789-1.475-2.803-1.523-3.045-.048-.531.242-1.256.87-2.175.291-.435.605-.846.943-1.232l1.523.072c1.111.193 1.884.556 2.32 1.088z" clip-rule="evenodd" fill="#7A6227" fill-rule="evenodd"/><path d="m24.798 19.673.146-3.553c.338-.725.653-1.256.942-1.595.629-.725.87-.218.725 1.522-.096 1.741-.435 2.876-1.015 3.408-.29.242-.556.315-.798.218z" clip-rule="evenodd" fill="#7A6227" fill-rule="evenodd"/><path d="M31.687 15.176c.146.677-.024 1.209-.508 1.596-.58.483-1.498.677-2.755.58l.145.943c.193.677.387 1.232.58 1.668l.58 1.014-1.305.653c-.58.338-.918.581-1.015.725l-.362-1.885-.943-2.465-.652 1.668c-.532.87-1.136.846-1.813-.072-.629-1.016-.459-2.346.508-3.988.676-1.209 1.57-2.007 2.682-2.394 1.063-.387 2.103-.338 3.119.145.965.484 1.545 1.087 1.739 1.812z" clip-rule="evenodd" fill="#DED8A0" fill-rule="evenodd"/><path d="M28.424 17.352a2.583 2.583 0 0 1-.218-.725c-.097-.483 0-.797.291-.942.338-.194.604-.218.797-.072.193.096.193.289 0 .579-.048.096-.217.242-.508.435-.193.098-.314.338-.362.725zm-2.321.871c-.096-.146-.266-.17-.507-.072-.338.097-.581.121-.725.072-.242-.048-.267-.218-.073-.508.146-.338.363-.507.653-.507.386 0 .604.338.652 1.015z" clip-rule="evenodd" fill="#968F48" fill-rule="evenodd"/><path d="m38.576 8.289 3.842-1.523c3.529.193 5.391.46 5.585.798.192.338.217 1.208.072 2.611-.097.338-.411.555-.943.651-.339.05-.821 0-1.45-.145l-.87-.29-.58 2.175c-.291 1.063-.773 2.103-1.45 3.119-.193-.242-.508-.459-.942-.653-.242-.097-.532-.121-.871-.072l-.507.072-.435-1.16 2.319-1.668.145-3.045-.869.942c-.339.387-.798.533-1.378.436l-.798-.29-.87-1.958z" clip-rule="evenodd" fill="#7A6227" fill-rule="evenodd"/><path d="M41.693 8.941c-1.547.773-2.563.677-3.045-.291-.339-.772-.219-1.619.362-2.537.579-.967 1.354-1.596 2.32-1.886 2.514-.773 4.374-.459 5.584.943.725.773 1.111 1.644 1.16 2.61.048.87-.122 1.45-.509 1.741-.241.192-.798.192-1.667 0l-1.306-.363-1.885 5.148a3.818 3.818 0 0 0-1.595-.363l-1.088-.072c.821-1.499 1.305-2.562 1.45-3.191l.219-1.739z" clip-rule="evenodd" fill="#DED8A0" fill-rule="evenodd"/><path d="M41.693 8.65c-.387-.725-.749-1.111-1.088-1.16-.339 0-.387-.218-.145-.652.192-.387.483-.508.87-.363.581.242.701.967.363 2.175zm2.901.219.581-1.16c.482-.725.966-.967 1.45-.725.53.242.677.556.435.942-.291.387-.653.58-1.088.58-.387-.097-.629-.145-.726-.145-.143 0-.362.169-.652.508z" clip-rule="evenodd" fill="#968F48" fill-rule="evenodd"/><path d="m17.982 8.578 1.232.363c.822.338 1.088.773.798 1.306-.436.87-1.161 1.256-2.176 1.16l-.073 4.351h-1.522v-.725c.048-.339-.048-.992-.291-1.958l-.29-1.378-.725.435c-.967.483-1.837.581-2.611.291-.58-.146-.966-.581-1.16-1.306-.193-.87.121-1.765.942-2.683 1.305-1.402 3.118-2.127 5.438-2.175l.29.652-.145.653c-.142.434-.045.773.293 1.014z" clip-rule="evenodd" fill="#7A6227" fill-rule="evenodd"/><path d="M13.559 7.781c1.209-.966 2.562-1.474 4.061-1.522 1.401-.049 2.393.29 2.973 1.015.484.629.604 1.305.363 2.03-.242.677-.653 1.136-1.233 1.378a3.109 3.109 0 0 1-1.088.218h-.362l.217 2.61.581 2.103-2.031.87c-.145-.581-.266-1.354-.362-2.32l-.145-2.612c-2.175 1.112-3.36 1.186-3.554.218-.338-.291-.556-.701-.653-1.232-.242-.968.169-1.887 1.233-2.756z" clip-rule="evenodd" fill="#DED8A0" fill-rule="evenodd"/><path d="M15.879 10.826c-.097-.048-.339.024-.725.218-.339.096-.532.024-.58-.218-.097-.289-.024-.531.217-.725.242-.145.58-.192 1.016-.145.58.145.821.677.725 1.595-.049-.387-.266-.628-.653-.725zm2.393.073c-.145-.629-.024-1.137.362-1.524.291-.289.532-.435.725-.435s.267.146.218.435c-.048.194-.193.338-.435.436-.241.097-.411.217-.508.363l-.362.725z" clip-rule="evenodd" fill="#968F48" fill-rule="evenodd"/><path d="M14.864 22.283c-.532-1.208-.821-2.296-.87-3.263l.072-1.16.797-3.553 3.408 1.813c1.837.967 3.143 1.909 3.916 2.828l-1.305 3.698c-1.016 2.513-1.741 4.036-2.175 4.569l-3.843-4.932z" clip-rule="evenodd" fill="#D66E40" fill-rule="evenodd"/><linearGradient id="i" x1="31.746" x2="39.342" y1="-2.311" y2="-2.311" gradientTransform="matrix(.5632 1.3364 -1.3364 .5632 -8.05 -24.85)" gradientUnits="userSpaceOnUse"><stop stop-color="#FF543D" offset="0"/><stop stop-color="#B31205" offset="1"/></linearGradient><path d="m14.864 14.307.145 1.813c.193 1.546.677 3.191 1.45 4.932 1.112 2.513 2.175 3.988 3.191 4.422l-.145.508c-.146.387-.411.797-.797 1.233a5.612 5.612 0 0 0-1.306 2.247c-.967-.338-1.982-1.401-3.045-3.19-.677-1.112-1.209-2.853-1.596-5.22l-.362-3.263.58-1.088c.291-.484.677-1.015 1.16-1.596l.725-.798z" clip-rule="evenodd" fill="url(#i)" fill-rule="evenodd"/><path d="M21.39 18.875c-.676.339-1.546.701-2.61 1.088-1.45.483-2.321-.242-2.61-2.175-.145-.823-.121-1.354.072-1.596.193-.291.653-.241 1.378.146 1.063.531 2.319 1.376 3.77 2.537zm.652.29-2.175 5.947a4.544 4.544 0 0 1-1.16-1.378c-.677-1.208-.75-2.127-.218-2.756.193-.338.774-.75 1.741-1.232l1.305-.581c.242-.097.411-.097.507 0z" clip-rule="evenodd" fill="#AD5630" fill-rule="evenodd"/><path d="m17.837 17.642.508.435c-.822.146-1.257.098-1.306-.145-.048-.194.025-.314.218-.363.242-.095.435-.071.58.073zm2.176 4.423c-.097 1.016-.314 1.354-.653 1.016-.048-.145.048-.363.291-.653l.362-.363z" clip-rule="evenodd" fill="#AB782A" fill-rule="evenodd"/><path d="M17.547 17.642c.29.146.242.218-.145.218-.145 0-.193-.072-.145-.218.048-.096.145-.096.29 0z" clip-rule="evenodd" fill="#E0BB82" fill-rule="evenodd"/><use transform="matrix(1.4502 0 0 -1.4502 12.6 15.75)" x="-.03" y="-2.657" width="1.78" height="2.657" xlink:href="#j"/><path d="m39.518 11.625 1.813 2.029c0 .533-.436 1.088-1.305 1.668-.823.629-1.813 1.232-2.975 1.813l-1.376.653-.798.217 4.641-6.38z" clip-rule="evenodd" fill="#BD502F" fill-rule="evenodd"/><path d="M34.949 8.506c.919.194 1.74.507 2.466.943 1.063.675 1.716 1.643 1.958 2.9.049.435-.121 1.426-.508 2.973l-1.16 1.088c-.483.387-1.426.917-2.827 1.595a16.777 16.777 0 0 0-.871-3.335c-.29-.677-.628-1.789-1.015-3.335l-.508-2.103.87-.797c.291-.098.823-.074 1.595.071z" clip-rule="evenodd" fill="#EB7855" fill-rule="evenodd"/><linearGradient id="k" x1="36.523" x2="43.411" y1="-.25" y2="-.25" gradientTransform="rotate(38.368 31.686 -23.993) scale(1.4503)" gradientUnits="userSpaceOnUse"><stop stop-color="#FF543D" offset="0"/><stop stop-color="#B31205" offset="1"/></linearGradient><path d="m34.878 6.04 1.232.363c1.016.483 2.006 1.257 2.973 2.321.773.821 1.522 2.464 2.248 4.93.048.291-.241.653-.87 1.088-.387.291-.773.459-1.16.508l-.436.072-.798-2.103c-.482-1.16-1.595-2.296-3.335-3.408-.677-.386-1.257-.604-1.74-.653l-.508.072c-.049-.096.097-.483.436-1.16.579-1.159 1.232-1.837 1.958-2.03z" clip-rule="evenodd" fill="url(#k)" fill-rule="evenodd"/><use transform="matrix(1.4502 0 0 -1.4502 33.55 6.65)" x="-.056" y="-2" width="3.306" height="1.988" xlink:href="#l"/><path d="M33.064 10.391c0-.387.29-.411.87-.072.532.29.87.677 1.015 1.16.387 1.45.484 2.9.291 4.351a5.948 5.948 0 0 1-.436 1.885c0-.966-.169-1.837-.507-2.61-.532-1.016-.919-2.296-1.161-3.843l-.072-.871zm2.321 6.744c-.145.192.291-1.112 1.305-3.916.194-.291.46-.218.799.218.289.435.411.941.362 1.522-.049.483-.412.917-1.087 1.304l-1.379.872z" clip-rule="evenodd" fill="#AD5630" fill-rule="evenodd"/><path d="M34.152 13.075a2.624 2.624 0 0 1-.218-.653c-.097-.435-.072-.725.072-.871.291-.289.436-.096.436.581 0 .194-.096.507-.29.943zm2.175 2.464c.05-.289.122-.555.218-.797.145-.483.314-.629.507-.435.291.29.05.701-.725 1.232z" clip-rule="evenodd" fill="#C48A30" fill-rule="evenodd"/><path d="M34.007 11.551c.193-.338.291-.241.291.291 0 .194-.073.387-.219.581l-.072-.872zm2.757 2.9c.24.194.144.437-.291.725 0-.144.024-.289.072-.435.049-.29.12-.386.219-.29z" clip-rule="evenodd" fill="#E0BB82" fill-rule="evenodd"/><path d="m32.774 28.156.436-10.368.435 1.014.58 2.175c.29.871.629 2.466 1.016 4.787.241 1.45.217 2.392-.073 2.826l-2.394-.434z" clip-rule="evenodd" fill="#BD502F" fill-rule="evenodd"/><path d="m33.21 17.788 1.015 4.495.218 2.176c-.629 1.692-1.088 2.658-1.378 2.9-.87.821-1.86.869-2.974.145-.773-.483-1.498-1.16-2.175-2.03-.628-.772-.991-1.354-1.088-1.74l-.217-1.595a86.104 86.104 0 0 1 1.595-1.087c1.16-.823 2.006-1.354 2.538-1.596.87-.388 1.692-.943 2.466-1.668z" clip-rule="evenodd" fill="#EB7855" fill-rule="evenodd"/><linearGradient id="m" x1="26.466" x2="26.934" y1="32.182" y2="38.357" gradientTransform="translate(-8.05 -24.85) scale(1.4502)" gradientUnits="userSpaceOnUse"><stop stop-color="#FF543D" offset="0"/><stop stop-color="#B31205" offset="1"/></linearGradient><path d="M26.466 27.432c-.387-1.016-.435-2.32-.145-3.916l.29-1.377.291.651c.386.484.918.943 1.595 1.378.967.581 1.715.943 2.248 1.088.677.242 1.329.218 1.958-.072.87-.435 1.45-.677 1.74-.725l.29.507c.193.484.338 1.063.435 1.74.146 1.063.146 1.692 0 1.885-1.885 1.162-3.335 1.645-4.351 1.45a6.585 6.585 0 0 1-3.335-1.522l-1.016-1.087z" clip-rule="evenodd" fill="url(#m)" fill-rule="evenodd"/><use transform="matrix(1.4502 0 0 -1.4502 26.55 24.05)" x="-.006" y="-3.595" width="2.712" height="3.597" xlink:href="#n"/><path d="M31.179 19.383c.677-.194 1.281-.677 1.813-1.45l-.726 2.031c-.241.483-.652 1.063-1.232 1.739-.58.677-1.063 1.137-1.45 1.378-.388.241-.847.17-1.378-.217-.58-.387-.749-.725-.507-1.015.193-.194.362-.387.507-.581.193-.192.58-.507 1.16-.941.725-.485 1.33-.8 1.813-.944zm1.885-.363c0 .048.146.773.435 2.175.242 1.112.242 1.909 0 2.394-.241.531-.604.798-1.087.798-.483-.049-.701-.291-.652-.726.869-3.385 1.304-4.931 1.304-4.641z" clip-rule="evenodd" fill="#AD5630" fill-rule="evenodd"/><path d="m29.947 20.905-.291 1.16c-.386.387-.604.363-.653-.072 0-.29.169-.555.508-.797l.436-.291zm2.827.509c.242 1.256.169 1.861-.218 1.813-.241-.05-.266-.363-.072-.943l.29-.87z" clip-rule="evenodd" fill="#C48A30" fill-rule="evenodd"/><path d="m29.003 21.993.581-.579-.218.579c-.289.484-.41.484-.363 0zm3.554.797c-.097-.048-.097-.216 0-.507l.146-.435c.145.677.096.992-.146.942z" clip-rule="evenodd" fill="#E0BB82" fill-rule="evenodd"/><path d="m51.41 16.989.435 1.016c.29 1.015.362 2.321.218 3.916l-2.03 7.686c-.579-.192-1.741-1.16-3.479-2.9l-2.394-2.61c.387-1.498 1.281-3.407 2.682-5.729l2.685-4.278 1.883 2.899z" clip-rule="evenodd" fill="#D66E40" fill-rule="evenodd"/><linearGradient id="o" x1="43.554" x2="37.175" y1="34.973" y2="29.627" gradientTransform="translate(-8.05 -24.85) scale(1.4502)" gradientUnits="userSpaceOnUse"><stop stop-color="#FF543D" offset="0"/><stop stop-color="#B31205" offset="1"/></linearGradient><path d="M51.991 30.84c-.437-.629-1.088-1.039-1.959-1.233-.531-.096-.918-.29-1.16-.579l-.29-.437c.871-1.208 1.402-3.432 1.596-6.67.145-2.272.072-4.255-.218-5.946l-.507-1.886.941.218c.677.194 1.21.435 1.597.725l1.014.653.652 3.479c.436 2.612.509 4.689.219 6.237-.435 2.563-1.063 4.375-1.885 5.439z" clip-rule="evenodd" fill="url(#o)" fill-rule="evenodd"/><path d="M44.812 23.443c.966-2.224 1.861-3.988 2.683-5.293.629-.919 1.088-1.306 1.378-1.161.242.098.411.605.507 1.524.387 2.078-.192 3.408-1.739 3.988l-2.829.942zm-.508.725.508-.362 1.45-.362c1.016-.241 1.691-.291 2.029-.145.678.24.896 1.208.653 2.9a7.471 7.471 0 0 1-.653 2.176l-3.987-4.207z" clip-rule="evenodd" fill="#AD5630" fill-rule="evenodd"/><path d="M47.784 19.601a.88.88 0 0 1 .507-.509c.242-.096.363-.048.363.146 0 .289-.411.676-1.232 1.16l.362-.797zm-.652 5.945.508.072c.289.097.459.219.508.363.048.29-.024.435-.219.435-.241.05-.507-.241-.797-.87z" clip-rule="evenodd" fill="#AB782A" fill-rule="evenodd"/><path d="M48.075 19.311c.096-.194.192-.242.29-.146.048.098.024.194-.074.291-.144.146-.24.218-.288.218-.098.047-.074-.073.072-.363z" clip-rule="evenodd" fill="#E0BB82" fill-rule="evenodd"/><use transform="matrix(1.4502 0 0 -1.4502 49.9 15.5)" y="-1.533" width="2.368" height="1.541" xlink:href="#p"/><path d="M16.387 28.375c-.048-.291.121-.943.508-1.959.145-.339.435-.651.87-.942.436-.29.701-.508.798-.652.096-.145.265-.629.507-1.45.242-.822.459-1.354.652-1.595.242-.242.508-.339.798-.291.145.048.387.121.725.217a.9.9 0 0 1 .726.362c.193.242.556.823 1.087 1.741.387.773.676 1.111.87 1.016.629-.29.967-.435 1.016-.435.677 0 1.329.314 1.958.941.58.677.556 1.161-.073 1.45-1.788.919-2.875 1.45-3.263 1.597-2.078.869-3.891 1.304-5.438 1.304-1.499 0-2.224-.145-2.176-.435.338-.339.483-.629.435-.869zm21.174-6.236c.531-.242.894-.532 1.088-.871.338-.579.579-.917.725-1.015.193-.193.483-.289.87-.289 1.063 0 1.813.168 2.247.507.098.048.267.363.509.943.192.435.411.651.653.651.192 0 .482-.168.869-.507.387-.387.701-.581.943-.581.482 0 .99.242 1.522.725a9.187 9.187 0 0 0-.726 1.233c-.484.917-.797 1.741-.943 2.465-.048.339.072.99.363 1.958.193.58-.049 1.063-.726 1.45-.966.629-3.311.773-7.033.435-3.818-.387-5.729-1.111-5.729-2.176 0-.966.266-1.378.798-1.231.677.24 1.16.12 1.45-.363.097-.193.338-.7.725-1.522.146-.338.435-.677.871-1.015.242-.146.75-.411 1.524-.797z" clip-rule="evenodd" fill="#7BB342" fill-rule="evenodd"/><path d="M8.918 22.428c-.193 0-.291-.217-.291-.651l.073-1.089 1.016-.29a5.046 5.046 0 0 1 2.248-.072c1.063.241 2.079.701 3.045 1.376 1.209.871 1.982 1.862 2.321 2.974.338 1.111.435 1.934.29 2.464-.097.339-.387.701-.87 1.088-.532.387-1.644.362-3.336-.072l-.652 1.813c-1.063.097-1.789-.362-2.175-1.378-.291-.675-.653-1.909-1.088-3.697l-.581-2.466z" clip-rule="evenodd" fill="#7A6227" fill-rule="evenodd"/><path d="M8.266 25.111c-1.064-1.645-1.112-2.948-.146-3.916 1.016-1.111 2.9-.773 5.656 1.016 1.257.87 2.104 2.006 2.538 3.407.387 1.402.049 2.079-1.015 2.031a19.44 19.44 0 0 1-2.538-.29l-.87-.219-.291.363c-.193.338-.29.652-.29.942.048.436-.073.87-.362 1.307-.871-.194-1.499-.509-1.886-.943l-.58-.581.362-2.247-.578-.87z" clip-rule="evenodd" fill="#DED8A0" fill-rule="evenodd"/><path d="M10.875 26.853c0-.146-.29-.363-.87-.653-.677-.29-1.063-.581-1.161-.871-.096-.482-.024-.846.218-1.088.29-.289.628-.265 1.015.074.581.531.847 1.375.798 2.538zm1.016.288c.342-.34.729-.63 1.16-.869.822-.483 1.402-.507 1.741-.072.291.339 0 .531-.87.579-1.101-.001-1.777.121-2.031.362z" clip-rule="evenodd" fill="#968F48" fill-rule="evenodd"/><path d="M45.827 23.733c-3.385 3.287-5.149 4.932-5.294 4.932-2.658 0-4.206-.412-4.641-1.233-.339-.579-.363-1.329-.072-2.248.242-.869.652-1.498 1.231-1.885 1.258-.822 2.78-1.209 4.569-1.16 1.933.096 3.215.411 3.844.942.24.193.362.338.362.435l.001.217z" clip-rule="evenodd" fill="#7A6227" fill-rule="evenodd"/><path d="M37.052 27.287c-.145-.435-.192-.943-.145-1.522.097-1.112.629-1.935 1.595-2.466 1.112-.629 2.563-.919 4.352-.871 1.74.098 2.828.46 3.263 1.088.484.677.652 1.354.509 2.03-.097.773-.509 1.307-1.234 1.595L43 27.65l-.146 1.595-2.465.218-.073-1.378c-1.982.048-3.07-.219-3.264-.798z" clip-rule="evenodd" fill="#DED8A0" fill-rule="evenodd"/><path d="M41.911 28.229c-.338.146-1.016.122-2.03-.072-.773-.096-1.016-.459-.726-1.088.242-.629.653-.894 1.233-.797.676.096 1.185.749 1.523 1.957zm1.088-.145c-.194.194-.072-.168.362-1.088.339-.821.726-1.256 1.16-1.306.482-.048.653.146.507.581-.096.387-.289.677-.579.869-.871.485-1.353.799-1.45.944z" clip-rule="evenodd" fill="#968F48" fill-rule="evenodd"/><linearGradient id="q" x1="4.25" x2="49.25" y1="40.475" y2="40.475" gradientTransform="translate(-8.05 -24.85) scale(1.4502)" gradientUnits="userSpaceOnUse"><stop stop-color="#fff" offset="0"/><stop stop-color="#A9CAD1" offset="1"/></linearGradient><path d="M56.631 23.589h.798c-.967 5.85-3.964 10.731-8.991 14.647-5.124 3.915-11.095 5.873-17.911 5.873s-12.762-1.958-17.838-5.873c-5.076-3.916-8.073-8.798-8.991-14.647h.797c2.127 2.078 5.511 3.746 10.152 5.002 4.786 1.307 10.104 1.959 15.952 1.959 5.802 0 11.095-.652 15.88-1.959 4.689-1.256 8.074-2.924 10.152-5.002z" clip-rule="evenodd" fill="url(#q)" fill-rule="evenodd"/><path d="M56.123 22.574h1.16l.072.725c0 2.175-2.61 4.036-7.83 5.583-5.271 1.546-11.603 2.321-18.999 2.321-7.444 0-13.777-.775-18.998-2.321-5.269-1.547-7.904-3.408-7.904-5.583l.145-.725h1.45l-.072.216c0 1.741 2.49 3.239 7.469 4.497 5.028 1.256 11.046 1.885 18.056 1.885 7.009 0 13.004-.629 17.982-1.885 4.979-1.258 7.469-2.756 7.469-4.497v-.216z" clip-rule="evenodd" fill="#fff" fill-rule="evenodd"/><path d="M4.64 24.677c1.016-.339 2.104-.17 3.263.507.58.339 1.063.701 1.45 1.088-.145 0-.338.024-.58.072-.58.146-1.208.484-1.886 1.016-1.111.821-1.474 1.813-1.087 2.973l-.87-1.957c-.29-1.308-.387-2.539-.29-3.699zm10.804 8.339c.193-1.161.459-2.007.797-2.538.725-.871 3.142-1.548 7.251-2.031 2.9-.386 5.39-.58 7.469-.58 1.45 0 4.085.29 7.903.871-.531 0-1.232.507-2.102 1.522-.291.387-.992.991-2.104 1.813-.483.387-.968.507-1.45.362-.822-.242-1.257-.362-1.306-.362-.532 0-.87.12-1.015.362-.146.242-.411.992-.799 2.248-.289.967-.676 1.426-1.16 1.378l-1.015-.145c-.096.145-.387.048-.87-.29-.629-.435-1.137-.629-1.523-.581a3.581 3.581 0 0 1-2.538-.507c-.58-.29-1.329-.362-2.248-.218a7.684 7.684 0 0 0-2.683 1.087c-.822.629-1.402.943-1.741.943-.338 0-.652-.338-.942-1.016-.142-.385-.117-1.158.076-2.318zm36.473-4.641a38.895 38.895 0 0 1 4.134-.509l-1.522 2.611c-.994 1.702-2.105 3.201-3.336 4.495.24-.265.554-.701.942-1.306.291-.435.459-1.014.508-1.739.049-.677-.049-1.088-.289-1.233-1.016-.048-1.669-.192-1.959-.435a25.452 25.452 0 0 0-1.813-1.669c-.339-.24-1.063-.435-2.176-.579l-1.595-.218 2.683-.435c.677 0 1.45.193 2.321.58.774.388 1.475.533 2.102.437z" clip-rule="evenodd" fill="#7C9FA3" fill-rule="evenodd"/><path d="M21.245 32.942c-1.789.242-3.312.798-4.568 1.668-1.16.773-2.296.677-3.408-.29-.532-.436-1.185-1.28-1.958-2.538-.291-.435-.145-.726.435-.87.968-.242 1.572-.459 1.813-.652.436-.339 1.136-1.088 2.103-2.248.339-.387.918-.677 1.74-.871l1.45-.362c.338-.097 1.523-.048 3.553.146.58 0 1.088-.096 1.522-.29.291-.145.75-.41 1.378-.797.58-.291 3.094-.122 7.542.507 2.996.435 5.244 1.258 6.742 2.466-.869 0-1.57.096-2.102.29-.098.048-.532.411-1.306 1.088-.677.579-1.378.894-2.104.941-.725.05-1.28.291-1.667.726-.242.242-.58.701-1.015 1.378-.339.435-.701.701-1.088.797-.532 0-1.016.024-1.451.074-.483.096-1.015 0-1.595-.291-.58-.29-.991-.41-1.233-.362-.435.145-.725.192-.87.145-.096-.048-.387-.217-.87-.507s-1.496-.341-3.043-.148zm31.471-7.468c.435-.532.941-.821 1.522-.87.29 0 .701.023 1.232.073.484-.05 1.016 0 1.596.145.387 0 1.305-.507 2.755-1.522.484-.339.847-.435 1.088-.29.29.096.387.362.29.797 0 .29-.242.509-.726.653a1.976 1.976 0 0 0-1.306 1.015c-.289.531-.651 1.499-1.087 2.901-.339 1.159-.604 1.813-.798 1.957-.192.193-.531.121-1.016-.217-.627-.484-1.136-.871-1.522-1.161-.435-.387-1.039-.411-1.813-.072-.773.435-1.305.701-1.595.797-.339.146-.701.098-1.088-.145-.194-.096-.677-.459-1.45-1.088-.435-.338-1.281-.507-2.538-.507l-1.74.145c.29-.096.991-.314 2.104-.652.772-.291 1.378-.459 1.813-.508 1.402-.193 2.127-.29 2.175-.29.918-.243 1.619-.63 2.104-1.161zm-42.855.87c-.436.096-.773.072-1.016-.072-.193-.194-.677-.169-1.45.072-.821.194-1.353.532-1.595 1.016-.29.531-.435 1.668-.435 3.407 0 .29-.169.314-.507.073-.58-.436-.967-.7-1.16-.799-.967-.482-1.62-1.498-1.958-3.045-.193-.919-.701-1.716-1.522-2.393-.29-.289-.29-1.064 0-2.32.096-.387.338-.749.725-1.088.435-.386.967-.581 1.595-.581h2.249c.532 0 .918.074 1.16.218.242.145.725.531 1.45 1.16.965.872 1.787 2.322 2.464 4.352z" clip-rule="evenodd" fill="#8ABD4D" fill-rule="evenodd"/><path d="M7.033 23.733c.223-.044.429-.044.617 0l-.544-.145c-.291-.098-.943-.146-1.958-.146-.483 0-.773.895-.87 2.684-.097 1.208-.097 2.296 0 3.263a7.936 7.936 0 0 1-.508-2.756l.436-3.045c-.097 0-.242.048-.436.145a2.07 2.07 0 0 0-.87.726l-1.088 1.595c.193-.87.436-1.571.725-2.103.193-.338.459-.629.798-.87l.435-.291c-.435-.338-.967-.507-1.595-.507l-1.377.145.725-.363c.58-.192 1.087-.241 1.522-.144.725.144 1.112.266 1.161.362l.58-.362h-.219l-1.015-.797.435.216c.291.098.581.146.871.146.435 0 .798.291 1.087.87h.58c.677 0 1.402.435 2.175 1.306.532.531.774 1.063.725 1.595l-.29-.435-.58-.362h-.724c-.483 0-1.087.218-1.813.652-.435.29-.725.749-.87 1.378a3.238 3.238 0 0 0-.145.87c-.048-1.016.193-1.909.725-2.683.386-.532.822-.847 1.305-.944zm10.369 5.729c-1.208 1.402-2.151 2.104-2.828 2.104h-.871c1.16-.339 1.958-.943 2.393-1.813.532-1.064 1.837-1.597 3.916-1.597.483 0 1.402.122 2.755.362 1.064.194 1.692.219 1.885.072 1.161-.772 1.765-1.159 1.813-1.159.193 0 .483-.169.87-.508l-3.408.363c.145-.146.338-.291.581-.435a2.55 2.55 0 0 1 1.45-.437c1.257 0 2.079-.12 2.465-.362.193-.145.556-.241 1.087-.289h.725l2.104.507c-.242.048-.508.097-.799.145-.628.098-1.038.218-1.231.362-.146.098.169.29.942.581.87.29 1.377.557 1.522.797.29.435.483 1.185.58 2.248a4.083 4.083 0 0 0-1.015-1.377c-.339-.339-.919-.652-1.741-.943-.387-.096-.821-.314-1.305-.652l-.653-.508-2.248 1.886 1.813.943c.435.338.846.869 1.233 1.595.29.435.604.7.943.797-.58 0-1.136-.267-1.668-.797-.967-1.064-1.789-1.595-2.466-1.595h-.942l-.508.216a5.748 5.748 0 0 0-1.015.798c-.436.532-.967.847-1.595.943.435-.629.845-1.112 1.233-1.45l.87-.653a29.543 29.543 0 0 0-2.755-.145 59.752 59.752 0 0 0-2.103-.435c-.917-.144-1.594.001-2.029.436zm34.226-2.103c-.05-.097-.314-.219-.799-.363l-.725-.218 1.161-.362h.869c.387 0 1.209-.192 2.466-.579l2.9-.072c.374-.027.798-.185 1.27-.472-.54.547-.891.922-1.053 1.123a.91.91 0 0 1-.797.437l-.435-.146.145.581.508 1.378c-.387-.242-.701-.604-.943-1.088-.29-.629-.894-.943-1.813-.943-.339 0-.701.145-1.088.435l-.435.363.725.146c.483.048.87.241 1.16.579l-.362-.145c-.145-.096-.411-.121-.798-.072-.725.049-1.136.072-1.231.072-.339 0-.557-.096-.653-.29l-.072-.364z" clip-rule="evenodd" fill="#719B3F" fill-rule="evenodd"/></svg>